<mxfile host="app.diagrams.net" modified="2022-07-16T22:07:12.977Z" agent="5.0 (Windows NT 10.0; Win64; x64) AppleWebKit/537.36 (KHTML, like Gecko) Chrome/103.0.0.0 Safari/537.36" etag="i0tlWGAsC8jV1xfkj8vo" version="20.1.1" type="github">
  <diagram id="C5RBs43oDa-KdzZeNtuy" name="Page-1">
    <mxGraphModel dx="1038" dy="579" grid="1" gridSize="10" guides="1" tooltips="1" connect="1" arrows="1" fold="1" page="1" pageScale="1" pageWidth="827" pageHeight="1169" math="0" shadow="0">
      <root>
        <mxCell id="WIyWlLk6GJQsqaUBKTNV-0" />
        <mxCell id="WIyWlLk6GJQsqaUBKTNV-1" parent="WIyWlLk6GJQsqaUBKTNV-0" />
        <mxCell id="VFf66zPgua7jxoZhkDXJ-0" value="Universite" style="swimlane;fontStyle=1;align=center;verticalAlign=middle;childLayout=stackLayout;horizontal=1;startSize=29;horizontalStack=0;resizeParent=1;resizeParentMax=0;resizeLast=0;collapsible=0;marginBottom=0;html=1;fillColor=#dae8fc;strokeColor=#6c8ebf;" vertex="1" parent="WIyWlLk6GJQsqaUBKTNV-1">
          <mxGeometry x="310" y="120" width="140" height="54" as="geometry" />
        </mxCell>
        <mxCell id="VFf66zPgua7jxoZhkDXJ-3" value="1" style="endArrow=open;html=1;endSize=12;startArrow=diamondThin;startSize=14;startFill=0;edgeStyle=orthogonalEdgeStyle;align=left;verticalAlign=bottom;rounded=0;" edge="1" parent="WIyWlLk6GJQsqaUBKTNV-1" target="VFf66zPgua7jxoZhkDXJ-4">
          <mxGeometry x="-1" y="3" relative="1" as="geometry">
            <mxPoint x="329.58000000000004" y="174" as="sourcePoint" />
            <mxPoint x="170" y="350" as="targetPoint" />
            <Array as="points">
              <mxPoint x="330" y="280" />
              <mxPoint x="240" y="280" />
            </Array>
          </mxGeometry>
        </mxCell>
        <mxCell id="VFf66zPgua7jxoZhkDXJ-4" value="&lt;span style=&quot;font-family: Nunito, sans-serif; font-size: 16px; font-weight: 400; letter-spacing: -0.64px; text-align: left; background-color: rgb(255, 255, 255);&quot;&gt;Sınıflıklar&lt;/span&gt;" style="swimlane;fontStyle=1;align=center;verticalAlign=middle;childLayout=stackLayout;horizontal=1;startSize=29;horizontalStack=0;resizeParent=1;resizeParentMax=0;resizeLast=0;collapsible=0;marginBottom=0;html=1;fillColor=#f8cecc;strokeColor=#b85450;" vertex="1" parent="WIyWlLk6GJQsqaUBKTNV-1">
          <mxGeometry x="150" y="350" width="140" height="54" as="geometry" />
        </mxCell>
        <mxCell id="VFf66zPgua7jxoZhkDXJ-7" value="has" style="text;html=1;align=center;verticalAlign=middle;resizable=0;points=[];autosize=1;strokeColor=none;fillColor=none;" vertex="1" parent="WIyWlLk6GJQsqaUBKTNV-1">
          <mxGeometry x="280" y="260" width="40" height="30" as="geometry" />
        </mxCell>
        <mxCell id="VFf66zPgua7jxoZhkDXJ-9" value="&lt;span style=&quot;font-family: Nunito, sans-serif; font-size: 16px; font-weight: 400; letter-spacing: -0.64px; text-align: left; background-color: rgb(255, 255, 255);&quot;&gt;çalışma ofisleri&amp;nbsp;&lt;/span&gt;" style="swimlane;fontStyle=1;align=center;verticalAlign=middle;childLayout=stackLayout;horizontal=1;startSize=29;horizontalStack=0;resizeParent=1;resizeParentMax=0;resizeLast=0;collapsible=0;marginBottom=0;html=1;fillColor=#f8cecc;strokeColor=#b85450;" vertex="1" parent="WIyWlLk6GJQsqaUBKTNV-1">
          <mxGeometry x="320" y="350" width="140" height="54" as="geometry" />
        </mxCell>
        <mxCell id="VFf66zPgua7jxoZhkDXJ-10" value="&lt;span style=&quot;font-family: Nunito, sans-serif; font-size: 16px; font-weight: 400; letter-spacing: -0.64px; text-align: left; background-color: rgb(255, 255, 255);&quot;&gt;&amp;nbsp;departmanlar&lt;/span&gt;" style="swimlane;fontStyle=1;align=center;verticalAlign=middle;childLayout=stackLayout;horizontal=1;startSize=29;horizontalStack=0;resizeParent=1;resizeParentMax=0;resizeLast=0;collapsible=0;marginBottom=0;html=1;fillColor=#f8cecc;strokeColor=#b85450;" vertex="1" parent="WIyWlLk6GJQsqaUBKTNV-1">
          <mxGeometry x="490" y="350" width="140" height="54" as="geometry" />
        </mxCell>
        <mxCell id="VFf66zPgua7jxoZhkDXJ-12" value="1..*" style="text;html=1;align=center;verticalAlign=middle;resizable=0;points=[];autosize=1;strokeColor=none;fillColor=none;" vertex="1" parent="WIyWlLk6GJQsqaUBKTNV-1">
          <mxGeometry x="180" y="320" width="40" height="30" as="geometry" />
        </mxCell>
        <mxCell id="VFf66zPgua7jxoZhkDXJ-13" value="1" style="endArrow=open;html=1;endSize=12;startArrow=diamondThin;startSize=14;startFill=0;edgeStyle=orthogonalEdgeStyle;align=left;verticalAlign=bottom;rounded=0;entryX=0.982;entryY=1.037;entryDx=0;entryDy=0;entryPerimeter=0;" edge="1" parent="WIyWlLk6GJQsqaUBKTNV-1" target="VFf66zPgua7jxoZhkDXJ-25">
          <mxGeometry x="-1" y="3" relative="1" as="geometry">
            <mxPoint x="389.81" y="175" as="sourcePoint" />
            <mxPoint x="389.81" y="355" as="targetPoint" />
            <Array as="points">
              <mxPoint x="390" y="280" />
              <mxPoint x="389" y="280" />
            </Array>
          </mxGeometry>
        </mxCell>
        <mxCell id="VFf66zPgua7jxoZhkDXJ-15" value="1" style="endArrow=open;html=1;endSize=12;startArrow=diamondThin;startSize=14;startFill=0;edgeStyle=orthogonalEdgeStyle;align=left;verticalAlign=bottom;rounded=0;entryX=0.5;entryY=0;entryDx=0;entryDy=0;" edge="1" parent="WIyWlLk6GJQsqaUBKTNV-1" target="VFf66zPgua7jxoZhkDXJ-10">
          <mxGeometry x="-1" y="3" relative="1" as="geometry">
            <mxPoint x="450" y="174" as="sourcePoint" />
            <mxPoint x="440" y="414.0039999999999" as="targetPoint" />
            <Array as="points">
              <mxPoint x="450" y="280" />
              <mxPoint x="560" y="280" />
            </Array>
          </mxGeometry>
        </mxCell>
        <mxCell id="VFf66zPgua7jxoZhkDXJ-17" value="has" style="text;html=1;align=center;verticalAlign=middle;resizable=0;points=[];autosize=1;strokeColor=none;fillColor=none;" vertex="1" parent="WIyWlLk6GJQsqaUBKTNV-1">
          <mxGeometry x="380" y="250" width="40" height="30" as="geometry" />
        </mxCell>
        <mxCell id="VFf66zPgua7jxoZhkDXJ-18" value="has" style="text;html=1;align=center;verticalAlign=middle;resizable=0;points=[];autosize=1;strokeColor=none;fillColor=none;" vertex="1" parent="WIyWlLk6GJQsqaUBKTNV-1">
          <mxGeometry x="490" y="250" width="40" height="30" as="geometry" />
        </mxCell>
        <mxCell id="VFf66zPgua7jxoZhkDXJ-25" value="1..*" style="text;html=1;align=center;verticalAlign=middle;resizable=0;points=[];autosize=1;strokeColor=none;fillColor=none;" vertex="1" parent="WIyWlLk6GJQsqaUBKTNV-1">
          <mxGeometry x="350" y="320" width="40" height="30" as="geometry" />
        </mxCell>
        <mxCell id="VFf66zPgua7jxoZhkDXJ-26" value="1..*" style="text;html=1;align=center;verticalAlign=middle;resizable=0;points=[];autosize=1;strokeColor=none;fillColor=none;" vertex="1" parent="WIyWlLk6GJQsqaUBKTNV-1">
          <mxGeometry x="520" y="320" width="40" height="30" as="geometry" />
        </mxCell>
        <mxCell id="VFf66zPgua7jxoZhkDXJ-27" value="&lt;span style=&quot;font-family: Nunito, sans-serif; font-size: 16px; font-weight: 400; letter-spacing: -0.64px; text-align: left; background-color: rgb(255, 255, 255);&quot;&gt;Ofise&lt;/span&gt;" style="swimlane;fontStyle=1;align=center;verticalAlign=middle;childLayout=stackLayout;horizontal=1;startSize=29;horizontalStack=0;resizeParent=1;resizeParentMax=0;resizeLast=0;collapsible=0;marginBottom=0;html=1;fillColor=#d5e8d4;strokeColor=#82b366;" vertex="1" parent="WIyWlLk6GJQsqaUBKTNV-1">
          <mxGeometry x="490" y="490" width="140" height="54" as="geometry" />
        </mxCell>
        <mxCell id="VFf66zPgua7jxoZhkDXJ-28" value="1" style="endArrow=open;html=1;endSize=12;startArrow=diamondThin;startSize=14;startFill=0;edgeStyle=orthogonalEdgeStyle;align=left;verticalAlign=bottom;rounded=0;entryX=0.501;entryY=-0.023;entryDx=0;entryDy=0;entryPerimeter=0;exitX=0.5;exitY=1;exitDx=0;exitDy=0;" edge="1" parent="WIyWlLk6GJQsqaUBKTNV-1" source="VFf66zPgua7jxoZhkDXJ-10" target="VFf66zPgua7jxoZhkDXJ-27">
          <mxGeometry x="-1" y="3" relative="1" as="geometry">
            <mxPoint x="560" y="410" as="sourcePoint" />
            <mxPoint x="560" y="470" as="targetPoint" />
            <Array as="points">
              <mxPoint x="560" y="480" />
              <mxPoint x="560" y="480" />
            </Array>
          </mxGeometry>
        </mxCell>
        <mxCell id="VFf66zPgua7jxoZhkDXJ-29" value="1..*" style="text;html=1;align=center;verticalAlign=middle;resizable=0;points=[];autosize=1;strokeColor=none;fillColor=none;" vertex="1" parent="WIyWlLk6GJQsqaUBKTNV-1">
          <mxGeometry x="520" y="460" width="40" height="30" as="geometry" />
        </mxCell>
        <mxCell id="VFf66zPgua7jxoZhkDXJ-33" value="1" style="endArrow=open;html=1;endSize=12;startArrow=diamondThin;startSize=14;startFill=0;edgeStyle=orthogonalEdgeStyle;align=left;verticalAlign=bottom;rounded=0;entryX=0.5;entryY=0;entryDx=0;entryDy=0;exitX=1;exitY=0.5;exitDx=0;exitDy=0;" edge="1" parent="WIyWlLk6GJQsqaUBKTNV-1" source="VFf66zPgua7jxoZhkDXJ-0">
          <mxGeometry x="-1" y="3" relative="1" as="geometry">
            <mxPoint x="640" y="174" as="sourcePoint" />
            <mxPoint x="750" y="350" as="targetPoint" />
            <Array as="points">
              <mxPoint x="640" y="147" />
              <mxPoint x="640" y="280" />
              <mxPoint x="750" y="280" />
            </Array>
          </mxGeometry>
        </mxCell>
        <mxCell id="VFf66zPgua7jxoZhkDXJ-34" value="&lt;div style=&quot;text-align: left;&quot;&gt;&lt;font face=&quot;Nunito, sans-serif&quot;&gt;&lt;span style=&quot;font-size: 16px; font-weight: 400; letter-spacing: -0.64px; background-color: rgb(255, 255, 255);&quot;&gt;Calisanlar&lt;/span&gt;&lt;/font&gt;&lt;/div&gt;" style="swimlane;fontStyle=1;align=center;verticalAlign=middle;childLayout=stackLayout;horizontal=1;startSize=29;horizontalStack=0;resizeParent=1;resizeParentMax=0;resizeLast=0;collapsible=0;marginBottom=0;html=1;fillColor=#f8cecc;strokeColor=#b85450;" vertex="1" parent="WIyWlLk6GJQsqaUBKTNV-1">
          <mxGeometry x="680" y="350" width="140" height="54" as="geometry" />
        </mxCell>
        <mxCell id="VFf66zPgua7jxoZhkDXJ-36" value="" style="endArrow=diamondThin;endFill=0;endSize=24;html=1;rounded=0;exitX=0.5;exitY=0;exitDx=0;exitDy=0;entryX=0.5;entryY=1;entryDx=0;entryDy=0;" edge="1" parent="WIyWlLk6GJQsqaUBKTNV-1" source="VFf66zPgua7jxoZhkDXJ-38" target="VFf66zPgua7jxoZhkDXJ-34">
          <mxGeometry width="160" relative="1" as="geometry">
            <mxPoint x="660" y="470" as="sourcePoint" />
            <mxPoint x="750" y="410" as="targetPoint" />
            <Array as="points">
              <mxPoint x="710" y="480" />
              <mxPoint x="750" y="480" />
            </Array>
          </mxGeometry>
        </mxCell>
        <mxCell id="VFf66zPgua7jxoZhkDXJ-38" value="&lt;span style=&quot;font-family: Nunito, sans-serif; font-size: 16px; font-weight: 400; letter-spacing: -0.64px; text-align: left; background-color: rgb(255, 255, 255);&quot;&gt;Memur&lt;/span&gt;" style="swimlane;fontStyle=1;align=center;verticalAlign=middle;childLayout=stackLayout;horizontal=1;startSize=29;horizontalStack=0;resizeParent=1;resizeParentMax=0;resizeLast=0;collapsible=0;marginBottom=0;html=1;fillColor=#ffe6cc;strokeColor=#d79b00;" vertex="1" parent="WIyWlLk6GJQsqaUBKTNV-1">
          <mxGeometry x="640" y="520" width="140" height="54" as="geometry" />
        </mxCell>
        <mxCell id="VFf66zPgua7jxoZhkDXJ-39" value="&lt;div style=&quot;text-align: left;&quot;&gt;&lt;font face=&quot;Nunito, sans-serif&quot;&gt;&lt;span style=&quot;font-size: 16px; font-weight: 400; letter-spacing: -0.64px; background-color: rgb(255, 255, 255);&quot;&gt;Profesor&lt;/span&gt;&lt;/font&gt;&lt;/div&gt;" style="swimlane;fontStyle=1;align=center;verticalAlign=middle;childLayout=stackLayout;horizontal=1;startSize=29;horizontalStack=0;resizeParent=1;resizeParentMax=0;resizeLast=0;collapsible=0;marginBottom=0;html=1;fillColor=#ffe6cc;strokeColor=#d79b00;" vertex="1" parent="WIyWlLk6GJQsqaUBKTNV-1">
          <mxGeometry x="800" y="520" width="140" height="54" as="geometry" />
        </mxCell>
        <mxCell id="VFf66zPgua7jxoZhkDXJ-37" value="" style="endArrow=diamondThin;endFill=0;endSize=24;html=1;rounded=0;entryX=0.5;entryY=1;entryDx=0;entryDy=0;" edge="1" parent="VFf66zPgua7jxoZhkDXJ-39" target="VFf66zPgua7jxoZhkDXJ-34">
          <mxGeometry width="160" relative="1" as="geometry">
            <mxPoint x="80" as="sourcePoint" />
            <mxPoint x="140" y="90" as="targetPoint" />
            <Array as="points">
              <mxPoint x="80" y="-40" />
              <mxPoint x="-50" y="-40" />
            </Array>
          </mxGeometry>
        </mxCell>
        <mxCell id="VFf66zPgua7jxoZhkDXJ-40" value="" style="endArrow=none;startArrow=none;endFill=0;startFill=0;endSize=8;html=1;verticalAlign=bottom;labelBackgroundColor=none;strokeWidth=3;rounded=0;entryX=0.25;entryY=1;entryDx=0;entryDy=0;" edge="1" parent="WIyWlLk6GJQsqaUBKTNV-1" target="VFf66zPgua7jxoZhkDXJ-34">
          <mxGeometry width="160" relative="1" as="geometry">
            <mxPoint x="590" y="490" as="sourcePoint" />
            <mxPoint x="710" y="420" as="targetPoint" />
            <Array as="points">
              <mxPoint x="590" y="440" />
              <mxPoint x="715" y="440" />
            </Array>
          </mxGeometry>
        </mxCell>
        <mxCell id="VFf66zPgua7jxoZhkDXJ-41" value="1" style="text;html=1;align=center;verticalAlign=middle;resizable=0;points=[];autosize=1;strokeColor=none;fillColor=none;" vertex="1" parent="WIyWlLk6GJQsqaUBKTNV-1">
          <mxGeometry x="690" y="400" width="30" height="30" as="geometry" />
        </mxCell>
        <mxCell id="VFf66zPgua7jxoZhkDXJ-42" value="1" style="text;html=1;align=center;verticalAlign=middle;resizable=0;points=[];autosize=1;strokeColor=none;fillColor=none;" vertex="1" parent="WIyWlLk6GJQsqaUBKTNV-1">
          <mxGeometry x="580" y="460" width="30" height="30" as="geometry" />
        </mxCell>
      </root>
    </mxGraphModel>
  </diagram>
</mxfile>
